<svg xmlns="http://www.w3.org/2000/svg" viewBox="0 0 184.898 184.898">
    <title>Fleets</title>
    <desc>"Air Force Plane" made by Freepik | http://www.freepik.com from http://www.flaticon.com is licensed by Creative Commons BY 3.0 | http://creativecommons.org/licenses/by/3.0/</desc>
    <g>
        <path d="M184.349,125.934l-2.122-4.742c-0.095-0.21-0.222-0.419-0.363-0.624c0.05-0.927,0.043-1.954,0.016-3.09l-0.013-0.608 c-0.309-17.789-1.63-31.043-2.685-39.03c-0.689-5.222-1.319-8.638-1.728-10.583c-0.704-3.365-1.17-5.589-3.506-5.589 c-2.385,0-2.859,2.313-3.579,5.814c-0.415,2.023-1.058,5.587-1.758,11.074c-0.559,4.389-1.19,10.306-1.696,17.578l-47.469-35.599 v-9.928c0-3.403-2.115-7.854-4.822-10.141l-6.111-5.126C102.368,10.525,97.678,0.205,91.686,0.205 c-5.672,0-10.537,10.196-17.024,35.701l-5.42,4.564c-2.688,2.269-4.793,6.721-4.793,10.136v9.418L17.89,94.838 c-0.518-7.062-1.149-12.773-1.707-16.997c-0.689-5.222-1.319-8.638-1.728-10.583c-0.704-3.365-1.17-5.589-3.506-5.589 c-2.385,0-2.859,2.313-3.579,5.814c-0.415,2.023-1.058,5.587-1.758,11.074c-1.053,8.258-2.36,21.88-2.606,39.883 c-0.01,0.73-0.005,1.443,0.031,2.128c-0.145,0.211-0.276,0.425-0.374,0.642l-2.111,4.762c-0.403,0.894-0.623,2.212-0.532,3.211 l0.408,4.36c0.163,1.799,1.669,3.105,3.579,3.105H17.89c1.912,0,3.417-1.298,3.579-3.083l0.408-4.44 c0.091-0.99-0.129-2.305-0.528-3.19l-2.122-4.742c-0.095-0.21-0.222-0.419-0.363-0.624c0.05-0.927,0.043-1.954,0.016-3.09 l-0.013-0.608c-0.027-1.567-0.065-3.087-0.107-4.583l50.085,22.535l1.279,3.762l-15.736,14.847 c-1.188,1.118-1.548,3.005-0.855,4.487l11.621,24.882c0.543,1.163,1.644,1.886,2.874,1.886c0.851,0,1.665-0.348,2.292-0.979 l11.288-11.352l1.538,4.524c1.222,3.608,5.082,6.435,8.788,6.435c3.705,0,7.569-2.822,8.797-6.421l1.154-3.364l10.125,10.183 c0.629,0.632,1.444,0.98,2.296,0.98c1.228,0,2.327-0.72,2.87-1.882l11.62-24.872c0.697-1.489,0.338-3.384-0.853-4.505l-14.48-13.664 l1.865-5.437l50.829-22.801c-0.067,2.226-0.119,4.525-0.151,6.907c-0.01,0.73-0.005,1.443,0.031,2.128 c-0.145,0.211-0.276,0.425-0.374,0.642l-2.111,4.762c-0.403,0.894-0.623,2.212-0.532,3.211l0.408,4.36 c0.163,1.799,1.669,3.105,3.579,3.105h13.883c1.912,0,3.417-1.298,3.579-3.083l0.408-4.44 C184.969,128.134,184.749,126.819,184.349,125.934z M91.436,66.627c-1.82,0-7.28-10.61-7.28-23.697 c0-13.088,5.233-23.697,7.28-23.697c2.005,0,7.28,10.61,7.28,23.697C98.716,56.017,93.37,66.627,91.436,66.627z"/>
    </g>
</svg>
