<svg style="enable-background:new 0 0 29.354 29.356;" viewBox="-1 -0.5 36.7 36.695" xmlns="http://www.w3.org/2000/svg">
    <title>PDU</title>
    <desc>Satellite by Hea Poh Lin from the Noun Project</desc>
    <g transform="scale(1.2)">
        <rect fill="#df740c" x="5.288" y="0.889" transform="matrix(0.7071 -0.7071 0.7071 0.7071 -0.4686 6.646)" width="5" height="5.999"/>
        <rect fill="#df740c" x="9.532" y="6.131" transform="matrix(0.7072 -0.707 0.707 0.7072 -2.2262 10.8865)" width="4.999" height="4"/>
        <rect fill="#df740c" x="22.965" y="18.567" transform="matrix(0.7071 -0.7071 0.7071 0.7071 -7.7913 24.3236)" width="5" height="6"/>
        <rect fill="#df740c" x="18.723" y="15.324" transform="matrix(0.7071 -0.7071 0.7071 0.7071 -6.0339 20.0809)" width="5" height="4"/>
        <polygon fill="#df740c" points="22.283,12.021 22.284,12.021 20.87,10.606 21.577,9.899 19.455,7.778 18.748,8.485 17.334,7.071 15.92,8.485    12.385,12.021 10.97,13.435 15.92,18.385  "/>
        <polygon fill="#df740c" points="15.566,19.445 15.213,19.092 10.263,14.142 9.909,13.788 4.605,15.557 13.798,24.749  "/>
        <path fill="#f63a0f" d="M9.994,29.355v-0.999c-2.304,0-4.609-0.877-6.364-2.632c-1.754-1.755-2.632-4.06-2.632-6.364L0,19.359   c-0.001,2.563,0.974,5.123,2.923,7.072C4.872,28.381,7.434,29.357,9.994,29.355z"/>
        <path fill="#f63a0f" d="M5.044,24.311c1.365,1.364,3.158,2.047,4.95,2.047v-1c-1.536,0-3.072-0.584-4.243-1.754   c-1.169-1.17-1.754-2.707-1.754-4.243H2.998C2.998,21.153,3.681,22.946,5.044,24.311z"/>
    </g>
</svg>
