<?xml version="1.0" encoding="utf-8"?>
<svg version="1.1" id="Capa_1" viewBox="3.412 5.798 40 39.24" xmlns="http://www.w3.org/2000/svg">
  <g>
    <path fill="#4b9b29" d="M28.502,17.371c-0.002,0-11.213-0.004-12.011-0.004c0,0-0.005,0-0.006,0c-1.021,0-1.853,0.846-1.85,1.867l0.04,11.565&#10;&#9;&#9;&#9;c0.004,1.018,0.83,1.863,1.845,1.863c0.002,0,0.005,0,0.007,0c0.574,0,1.086-0.287,1.423-0.701l0.729,11.256&#10;&#9;&#9;&#9;c0.064,1.006,0.9,1.762,1.909,1.762h3.804c1.008,0,1.842-0.767,1.908-1.772l0.727-11.276c0.338,0.438,0.849,0.731,1.425,0.731&#10;&#9;&#9;&#9;c0.002,0,0.003,0,0.007,0c1.016,0,1.841-0.86,1.848-1.871l0.037-11.544C30.347,18.235,29.522,17.371,28.502,17.371z" />
    <circle fill="#4b9b29" cx="22.491" cy="11.022" r="5.115" />
  </g>
</svg>
