<?xml version="1.0" encoding="utf-8"?>
<svg version="1.1" viewBox="0 0 512 512" xmlns="http://www.w3.org/2000/svg">
  <title>Resource: Food</title>
  <g transform="rotate(45, 256, 256)">
    <ellipse style="fill:#FFDC35;" cx="256.554" cy="187.103" rx="75.857" ry="187.103"/>
    <path style="fill:#FF9900;" d="M256.559,0v374.209c41.892,0,75.854-83.77,75.854-187.105C332.411,83.77,298.451,0,256.559,0z"/>
    <path style="fill:#7FA24D;" d="M227.154,337.181c0,95.194-10.126,174.819,28.467,174.819S366.91,432.375,366.91,337.181 s88.807-164.751,50.214-164.751S227.154,241.986,227.154,337.181z"/>
    <path style="fill:#A8DA64;" d="M284.846,337.181C308.254,417.245,304.883,512,256.38,512c-38.593,0-111.288-79.625-111.288-174.819 S56.284,172.429,94.875,172.429S258.133,245.81,284.846,337.181z"/>
  </g>
</svg>
