<svg viewBox="-1 0 96 96" xmlns="http://www.w3.org/2000/svg">
    <title>Resource: Research</title>
    <circle cx="48" cy="48" r="24" fill="#fff" fill-opacity="0.3" />
    <path d="M74.38,54.964c2.886-1.487,5.54-3.018,7.906-4.578c8.557-5.637,12.361-10.96,11.006-15.394  c-0.884-2.896-3.776-4.87-8.585-5.87c-1.27-0.267-2.67-0.455-4.174-0.58c-1.174-2.903-4.398-4.48-7.459-3.548  c-1.891,0.577-3.303,2-3.941,3.726c-1.866,0.175-3.798,0.407-5.787,0.702c0.832-15.262-1.425-27.873-8.264-29.296  c-6.655-1.384-13.554,8.67-18.818,22.405c-6.107-3.516-11.729-5.929-16.262-6.865c-4.815-1.004-8.251-0.35-10.217,1.955  c-1.989,2.333-2.062,5.92-0.269,10.567c-1.905,2.563-1.532,6.2,0.931,8.302c1.304,1.115,2.94,1.585,4.512,1.443  c1.268,1.809,2.669,3.667,4.203,5.545C6.874,49.799-1.636,57.196,0.266,63.417c0.879,2.894,3.771,4.867,8.584,5.866  c4.609,0.961,10.866,0.977,18.028,0.143c-0.339,13.719,2.058,24.616,8.392,25.94c3.618,0.748,7.301-1.876,10.754-6.628  c0.31,0.125,0.629,0.225,0.967,0.297c3.312,0.685,6.554-1.438,7.238-4.75c0.501-2.393-0.474-4.74-2.299-6.121  c0.636-1.408,1.252-2.885,1.848-4.405c7.445,4.665,14.384,7.864,19.772,8.985c0.004,0,0.004,0,0.004,0  c4.809,1,8.248,0.34,10.215-1.961C87.991,75.838,83.133,65.667,74.38,54.964z M68.952,32.401c0.02,0.078,0.039,0.159,0.056,0.239  c0.994,3.23,4.417,5.054,7.649,4.067c2.166-0.661,3.686-2.413,4.168-4.466c1.116,0.114,2.169,0.267,3.136,0.467  c3.311,0.689,5.379,1.877,5.829,3.355c0.615,2.007-1.563,6.02-9.514,11.265c-2.471,1.628-5.271,3.226-8.328,4.765  c-3-3.428-6.349-6.871-9.882-10.172c0.433-2.952,0.771-5.896,1.017-8.769C65.106,32.837,67.069,32.582,68.952,32.401z   M50.271,60.637c-2.095,0.641-4.182,1.238-6.24,1.773c-1.674-1.319-3.352-2.688-5.019-4.107c-2.376-2.033-4.651-4.092-6.81-6.17  c0.362-2.204,0.779-4.48,1.27-6.827c0.321-1.561,0.665-3.082,1.016-4.565c2.765-1.028,5.693-2.029,8.795-2.976  c2.095-0.64,4.177-1.23,6.242-1.771c1.676,1.316,3.35,2.692,5.019,4.113c1.251,1.071,2.454,2.133,3.617,3.187  c-0.36,2.221-0.782,4.517-1.275,6.886c-0.657,3.176-1.387,6.182-2.156,9.027C53.264,59.704,51.777,60.178,50.271,60.637z   M53.505,63.465c-0.503,1.648-1.021,3.236-1.546,4.748c-1.408-0.953-2.826-1.955-4.255-3.009c1.21-0.339,2.423-0.692,3.64-1.058  C52.067,63.924,52.792,63.692,53.505,63.465z M39.54,63.511c-3.035,0.688-6,1.261-8.842,1.711c0.17-2.719,0.45-5.615,0.855-8.669  c1.633,1.521,3.329,3.038,5.082,4.531C37.6,61.907,38.569,62.719,39.54,63.511z M29.029,48.988  c-1.406-1.437-2.754-2.881-4.025-4.312c1.688-0.779,3.472-1.561,5.359-2.331c-0.169,0.742-0.332,1.478-0.477,2.214  C29.579,46.03,29.29,47.507,29.029,48.988z M35.579,36.455c0.816-3.029,1.685-5.865,2.589-8.514c2.51,1.59,5.08,3.35,7.678,5.262  c-1.208,0.34-2.418,0.687-3.635,1.061C39.99,34.943,37.773,35.677,35.579,36.455z M54.011,34.899  c1.819-0.415,3.612-0.787,5.371-1.115c-0.149,1.665-0.353,3.392-0.585,5.171c-0.623-0.553-1.247-1.096-1.881-1.629  C55.954,36.499,54.983,35.692,54.011,34.899z M61.364,46.284c2.659,2.557,5.054,5.051,7.189,7.455  c-3.033,1.402-6.271,2.739-9.663,3.998c0.581-2.257,1.106-4.534,1.579-6.809C60.792,49.389,61.085,47.834,61.364,46.284z   M54.336,3.711c3.553,0.739,6.279,10.543,5.332,26.312c-3.021,0.537-6.14,1.202-9.316,1.987c-3.683-2.819-7.363-5.367-10.923-7.583  C44.746,10.416,50.887,2.996,54.336,3.711z M18.415,36.479c0.236-0.204,0.464-0.425,0.667-0.668  c2.197-2.567,1.895-6.434-0.678-8.628c-1.656-1.415-3.847-1.785-5.785-1.188c-1.044-3.087-0.852-5.054-0.046-5.995  c1-1.17,3.374-1.439,6.681-0.75c4.334,0.9,9.787,3.278,15.737,6.761c-1.341,3.835-2.551,7.888-3.597,12.008  c-3.054,1.19-6.03,2.464-8.857,3.799C21.034,40.007,19.651,38.22,18.415,36.479z M9.594,65.703c-3.31-0.688-5.378-1.881-5.829-3.36  c-0.993-3.243,5.315-9.666,17.824-16.01c2.062,2.361,4.308,4.743,6.719,7.117c-0.619,4.17-1.054,8.314-1.278,12.291  C20.049,66.595,13.992,66.613,9.594,65.703z M48.481,76.931c-2.939-0.122-5.621,1.89-6.236,4.863  c-0.349,1.672,0.024,3.321,0.898,4.639c-2.776,3.86-5.321,5.722-7.125,5.348c-3.288-0.684-5.862-9.122-5.484-22.843  c4.034-0.607,8.298-1.459,12.666-2.543c2.506,1.916,5.005,3.703,7.46,5.346C49.946,73.592,49.215,75.322,48.481,76.931z   M80.98,78.406c-1.001,1.175-3.37,1.442-6.683,0.753l0,0c-5.164-1.075-11.916-4.242-19.212-8.885  c0.942-2.645,1.829-5.408,2.635-8.225c4.724-1.664,9.203-3.492,13.304-5.434C79.965,67.42,83.184,75.825,80.98,78.406z"
        transform="matrix(1, 0, 0, 1, 0, 0)"
        fill="#6fc3df" />
    <path d="M50.239,44.249c-2.572-2.199-6.436-1.889-8.63,0.679c-2.198,2.572-1.893,6.439,0.683,8.634  c2.568,2.194,6.434,1.89,8.628-0.685C53.116,50.309,52.813,46.441,50.239,44.249z"
        transform="matrix(1, 0, 0, 1, 0, 0)"
        fill="#fff" />
</svg>
