<svg xmlns="http://www.w3.org/2000/svg" viewBox="0 0 24 24">
  <title>Sync</title>
  <desc>from Material Design Icons under Apache License Version 2.0 https://material.io/icons/</desc>
  <path
     d="M 11.887612,3.2643705 V -0.01149049 L 7.4099638,4.3563242 11.887612,8.724139 V 5.4482779 c 3.705254,0 6.716473,2.9373554 6.716473,6.5517221 0,1.102873 -0.279854,2.151149 -0.783589,3.05747 l 1.634342,1.594253 C 20.327979,15.30862 20.842909,13.714367 20.842909,12 c 0,-4.8264353 -4.007495,-8.7356295 -8.955297,-8.7356295 z m 0,15.2873515 c -3.7052538,0 -6.7164722,-2.937355 -6.7164722,-6.551722 0,-1.102873 0.279853,-2.1511488 0.7835884,-3.0574703 L 4.3203865,7.3482773 C 3.4472452,8.6913803 2.9323156,10.285633 2.9323156,12 c 0,4.826435 4.0074953,8.735629 8.9552964,8.735629 v 3.275861 l 4.477648,-4.367814 -4.477648,-4.367815 z" />
  <path d="M0 0h24v24H0z" fill="none" />
</svg>
