<svg version="1.0" viewBox="0.727 4.418 52.764 54.682" xmlns="http://www.w3.org/2000/svg">
    <title>FTL</title>
    <desc>"Black Hole" from Focus Lab, US from the Noun Project under Creative Commons </desc>
    <g transform="matrix(1.130281, 0, 0, 1.264016, -1.036625, 0.196834)" style="">
        <path d="M44.2,29.2c-2.8-1.9-6.9-3.9-11.9-5.9l2.6-7.3c0.2-0.6-0.1-1.4-0.8-1.6c-0.6-0.2-1.4,0.1-1.6,0.8l-2.6,7.2   c-0.6-0.2-1.3-0.5-1.9-0.7l5.9-16.7c0.2-0.6-0.1-1.4-0.8-1.6c-0.6-0.2-1.4,0.1-1.6,0.8l-6,16.7c-5.6-1.9-10.8-3.2-14.8-3.7   c-5.3-0.7-8.2-0.1-9,2c-0.9,2.7,2.8,5.2,4,6c2.7,1.8,6.6,3.8,11.4,5.7l-5,14c-0.2,0.6,0.1,1.4,0.8,1.6c0.1,0,0.3,0.1,0.4,0.1   c0.5,0,1-0.3,1.2-0.8l5-14c0.6,0.2,1.3,0.5,1.9,0.7l-3,8.3c-0.2,0.6,0.1,1.4,0.8,1.6c0.1,0,0.3,0.1,0.4,0.1c0.5,0,1-0.3,1.2-0.8   l3-8.3c5.8,2,11.2,3.3,15.3,3.9c5.3,0.7,8.2,0.1,9-2C49,32.5,45.4,30,44.2,29.2z M29.1,24.8l-0.6,1.7c-0.6-0.2-1.3-0.5-1.9-0.7   l0.6-1.6C27.8,24.3,28.5,24.6,29.1,24.8z M45.8,34.4c0,0-0.7,1.1-6.3,0.4c-4.1-0.6-9.7-2-15.7-4.1c-7.1-2.4-13.1-5.2-16.6-7.5   c-2.7-1.8-3.1-2.9-3-3.1c0,0,0.7-1.1,6.3-0.4c3.8,0.5,8.8,1.8,14.3,3.6l-0.6,1.6c-5.6-1.8-8.8-2.4-8.9-2.4   c-0.6-0.1-1.2,0.3-1.4,0.8c-0.2,0.5,0,1.1,0.5,1.4c0,0,0.1,0,0.1,0.1c0.1,0.1,3.4,1.9,9.9,4.1c6.5,2.2,10.2,2.8,10.3,2.9   c0.6,0.1,1.2-0.3,1.4-0.8c0.2-0.6,0-1.2-0.6-1.5c-0.1-0.1-1.7-0.9-4.7-2.2l0.6-1.7c4.8,1.9,8.8,3.8,11.3,5.6   C45.4,33.1,45.8,34.1,45.8,34.4z"/>
        <path d="M23.5,16.9c0.1,0,0.3,0.1,0.4,0.1c0.5,0,1-0.3,1.2-0.8l2.5-7c0.2-0.7-0.1-1.4-0.8-1.6c-0.6-0.2-1.4,0.1-1.6,0.8l-2.5,7   C22.5,16,22.9,16.7,23.5,16.9z"/>
        <path d="M26.2,36.5c-0.6-0.2-1.4,0.1-1.6,0.8l-2.1,6c-0.2,0.7,0.1,1.4,0.8,1.6c0.1,0,0.3,0.1,0.4,0.1c0.5,0,1-0.3,1.2-0.8l2.1-6   C27.2,37.4,26.9,36.7,26.2,36.5z"/>
    </g>
</svg>
