<svg viewBox="0 0 24 24" xmlns="http://www.w3.org/2000/svg">
  <g transform="matrix(0.76718, 0.76718, -0.76718, 0.76718, 10.95794, -4.755023)">
    <path d="M5,7.5 L17.5,7.5 L15.5,0.5 L7,0.5 Z" fill="#444" stroke="#000" stroke-linecap="round" stroke-width="1"/>
    <path d="M 12.351 24 C 12.351 24 12.869 22.145 12.869 20.64 C 12.869 19.198 11.924 18.029 10.482 18.029 C 9.033 18.029 7.941 19.198 7.941 20.64 L 7.962 20.892 C 6.548 19.212 5.701 17.035 5.701 14.669 C 5.701 11.575 8.207 9.069 11.301 9.069 C 14.395 9.069 16.901 11.575 16.901 14.669 C 16.901 18.442 15.088 21.809 12.351 24 Z M 11.098 11.169 C 9.852 11.169 8.844 12.149 8.844 13.367 C 8.844 14.501 9.579 15.299 10.811 15.551 C 12.05 15.803 13.331 16.398 14.045 17.357 C 14.318 16.454 14.458 15.502 14.458 14.529 C 14.458 12.674 12.953 11.169 11.098 11.169 Z" fill="#de0000"/>
  </g>
</svg>
