<svg xmlns="http://www.w3.org/2000/svg" xmlns:xlink="http://www.w3.org/1999/xlink" viewBox="0 0 240 240">
    <title>Missile</title>
    <desc>"Missile" by Nizamettin Kocaaga</desc>
    <g>
        <path fill="#df740c" d="M 233.538 6.452 C 197.184 15.118 171.307 41.306 171.307 41.306 L 184.977 54.975 L 185.035 55.033 L 198.705 68.703 C 198.704 68.703 224.871 42.806 233.538 6.452 Z"/>
        <polygon fill="#3c8ca7" points="95.22 109.083 30.328 147.139 3.001 174.977 15.656 188.646"/>
        <polygon fill="#3c8ca7" points="123.073 155.095 88.657 211.698 63.48 235.535 51.118 224.495" style=""/>
        <path fill="#3c8ca7" d="M 166.455 45.601 L 19.409 192.645 L 20.668 193.903 L 17.178 202.539 L 37.471 222.833 L 46.106 219.341 L 47.364 220.6 L 194.164 72.329 L 166.455 45.601 Z M 34.444 208.891 L 31.547 205.751 L 111.8 125.743 L 115.187 129.13 L 34.444 208.891 Z"/>
    </g>
</svg>
