<svg viewBox="0 0 240 240" xmlns="http://www.w3.org/2000/svg">
    <title>Laser</title>
    <desc>"Laser" by Nizamettin Kocaaga</desc>
    <path fill="#1b7f1e" d="M232.913,239.96c-0.122-25.62-20.924-46.356-46.574-46.356H82.456V169.98c0-8.169-6.622-14.792-14.79-14.792&#10;&#9;c-8.17,0-14.792,6.623-14.792,14.792v23.643c-25.287,0.42-45.668,20.979-45.788,46.337H232.913z"/>
    <rect fill="#e9f240" x="162.583" y="65.864" transform="matrix(0.707107, 0.707106, -0.707107, 0.707107, 81.044646, -99.695359)" width="18.247" height="106.249" style=""/>
    <path fill="#1b7f1e" d="M164.919,88.26c2.839,2.838,2.838,7.442,0,10.279l0,0c-2.838,2.838-7.441,2.839-10.279,0l-28.265-28.264&#10;&#9;c-2.838-2.838-2.836-7.441,0.002-10.28l0,0c2.836-2.837,7.439-2.838,10.277,0L164.919,88.26z"/>
    <path fill="#1b7f1e" d="M138.371,114.81c2.838,2.838,2.838,7.44,0,10.278l0,0c-2.838,2.839-7.44,2.839-10.278,0L99.828,96.823&#10;&#9;c-2.839-2.838-2.839-7.44,0-10.278l0,0c2.838-2.839,7.44-2.839,10.278,0L138.371,114.81z"/>
    <path fill="#1b7f1e" d="M111.823,141.355c2.837,2.838,2.839,7.442,0.001,10.282l0,0c-2.838,2.837-7.443,2.837-10.281-0.001&#10;&#9;l-28.265-28.268c-2.838-2.837-2.837-7.439,0-10.277l0,0c2.839-2.838,7.441-2.839,10.279,0L111.823,141.355z"/>
    <path fill="#1b7f1e" d="M104.059,166.664l-45.809-45.81l69.631-69.631c-12.549-0.369-25.218,4.224-34.795,13.803l-44.378,44.377&#10;&#9;c-18.448,18.448-18.448,48.358-0.001,66.807c18.45,18.448,48.357,18.446,66.805-0.002l44.377-44.378&#10;&#9;c9.58-9.578,14.174-22.249,13.802-34.798L104.059,166.664z"/>
    <path fill="#e9f240" d="M169.321,83.186c0.111-0.105,0.23-0.197,0.339-0.305c7.626-7.627,7.626-19.995-0.003-27.623&#10;&#9;c-7.626-7.627-19.993-7.628-27.622-0.001c-0.109,0.109-0.198,0.228-0.305,0.339L169.321,83.186z"/>
    <polygon fill="#e9f240" points="214.812 -0.374 163.505 52.162 172.264 59.939 230.368 0.117" transform=""/>
    <circle fill="#23a426" cx="66.623" cy="171.852" r="8.915"/>
</svg>
