<svg viewBox="0 0 24 24" xmlns="http://www.w3.org/2000/svg">
    <title>view_detailed</title>
    <path d="M2,3.5 l20,0 a0.5,0.5 0 0 1 0.5,0.5 l0,1 a0.5,0.5 0 0 1 -0.5,0.5 l-20,0 a0.5,0.5 0 0 1 -0.5,-0.5 l0,-1 a0.5,0.5 0 0 1 0.5,-0.5 z" />
    <path d="M2,8.5 l20,0 a0.5,0.5 0 0 1 0.5,0.5 l0,1 a0.5,0.5 0 0 1 -0.5,0.5 l-20,0 a0.5,0.5 0 0 1 -0.5,-0.5 l0,-1 a0.5,0.5 0 0 1 0.5,-0.5 z" />
    <path d="M2,13.5 l20,0 a0.5,0.5 0 0 1 0.5,0.5 l0,1 a0.5,0.5 0 0 1 -0.5,0.5 l-20,0 a0.5,0.5 0 0 1 -0.5,-0.5 l0,-1 a0.5,0.5 0 0 1 0.5,-0.5 z" />
    <path d="M2,18.5 l20,0 a0.5,0.5 0 0 1 0.5,0.5 l0,1 a0.5,0.5 0 0 1 -0.5,0.5 l-20,0 a0.5,0.5 0 0 1 -0.5,-0.5 l0,-1 a0.5,0.5 0 0 1 0.5,-0.5 z" />
</svg>
