<svg viewBox="0 0 24 24" xmlns="http://www.w3.org/2000/svg">
    <title>view_detailed</title>
    <path d="M2,3 l8,0 a1,1 0 0 1 1,1 l0,6 a1,1 0 0 1 -1,1 l-8,0 a1,1 0 0 1 -1,-1 l0,-6 a1,1 0 0 1 1,-1 z" />
    <path d="M14,3 l8,0 a1,1 0 0 1 1,1 l0,6 a1,1 0 0 1 -1,1 l-8,0 a1,1 0 0 1 -1,-1 l0,-6 a1,1 0 0 1 1,-1 z" />
    <path d="M2,13 l8,0 a1,1 0 0 1 1,1 l0,6 a1,1 0 0 1 -1,1 l-8,0 a1,1 0 0 1 -1,-1 l0,-6 a1,1 0 0 1 1,-1 z" />
    <path d="M14,13 l8,0 a1,1 0 0 1 1,1 l0,6 a1,1 0 0 1 -1,1 l-8,0 a1,1 0 0 1 -1,-1 l0,-6 a1,1 0 0 1 1,-1 z" />
</svg>
