<svg viewBox="0 0 24 24" xmlns="http://www.w3.org/2000/svg">
    <title>Plasma</title>
    <desc>"Plasma" by Nizamettin Kocaaga</desc>
    <g transform="rotate(-180, 12, 12)">
        <g transform="matrix(1, 0, 0, 1, 0, 4.440892098500626e-16)">
            <g>
                <path fill="#ea582b" d="M7.976,16.024c1.859,1.858,3.808,3.254,5.404,3.969l0.982-0.982c-1.616-0.699-3.612-2.113-5.515-4.017&#10;&#9;&#9;&#9;&#9;c-1.818-1.817-3.19-3.72-3.919-5.294l-0.921,0.921C4.722,12.217,6.117,14.165,7.976,16.024z"/>
                <path fill="#ea582b" d="M13.518,10.483c1.13,1.129,2.313,1.978,3.283,2.412l0.597-0.596c-0.982-0.426-2.194-1.285-3.351-2.441&#10;&#9;&#9;&#9;&#9;c-1.104-1.104-1.938-2.26-2.381-3.217l-0.56,0.56C11.541,8.169,12.388,9.354,13.518,10.483z"/>
                <path fill="#ea582b" d="M18.854,5.145c0.714,0.713,1.459,1.247,2.072,1.522l0.375-0.376c-0.618-0.269-1.384-0.811-2.112-1.541&#10;&#9;&#9;&#9;&#9;c-0.697-0.696-1.224-1.425-1.504-2.029l-0.353,0.353C17.607,3.686,18.143,4.433,18.854,5.145z"/>
                <path fill="#ea2b2b" d="M6.894,20.295l8.036-9.561L23.711,0.29L13.266,9.07l-9.56,8.037c-0.916-0.044-1.845,0.278-2.544,0.978&#10;&#9;&#9;&#9;c-1.312,1.313-1.312,3.44,0.001,4.754c1.312,1.313,3.44,1.313,4.753,0.001C6.616,22.14,6.938,21.21,6.894,20.295z"/>
                <path fill="#ea852b" d="M10.399,13.602c-1.859-1.86-3.807-3.254-5.403-3.97l-0.983,0.983c1.615,0.698,3.611,2.114,5.514,4.017&#10;&#9;&#9;&#9;&#9;c1.819,1.817,3.19,3.719,3.92,5.294l0.921-0.923C13.654,17.408,12.258,15.461,10.399,13.602z"/>
                <path fill="#ea852b" d="M14.989,9.011c-1.129-1.13-2.313-1.978-3.283-2.413L11.11,7.196c0.982,0.425,2.194,1.285,3.35,2.44&#10;&#9;&#9;&#9;&#9;c1.104,1.105,1.938,2.26,2.382,3.217l0.56-0.56C16.967,11.324,16.119,10.141,14.989,9.011z"/>
                <path fill="#ea852b" d="M19.784,4.217c-0.714-0.713-1.46-1.248-2.072-1.522l-0.376,0.377c0.619,0.268,1.385,0.81,2.114,1.54&#10;&#9;&#9;&#9;&#9;c0.697,0.697,1.222,1.426,1.502,2.03l0.354-0.354C21.031,5.675,20.496,4.93,19.784,4.217z"/>
            </g>
            <circle fill="#ea852b" cx="3.591" cy="20.409" r="2.065" />
            <circle fill="#ea852b" cx="4.97" cy="18.492" r="0.938" />
        </g>
    </g>
</svg>
