<?xml version="1.0" standalone="no"?>
<!DOCTYPE svg PUBLIC "-//W3C//DTD SVG 20010904//EN"
 "http://www.w3.org/TR/2001/REC-SVG-20010904/DTD/svg10.dtd">
<svg version="1.0" xmlns="http://www.w3.org/2000/svg"
 width="700.000000pt" height="700.000000pt" viewBox="0 0 700.000000 700.000000"
 preserveAspectRatio="xMidYMid meet">
<metadata>
Created by potrace 1.11, written by Peter Selinger 2001-2013
</metadata>
<g transform="translate(0.000000,700.000000) scale(0.100000,-0.100000)"
fill="#000000" stroke="none">
<path d="M6188 6996 c-1 -2 -45 -7 -95 -10 -51 -4 -103 -9 -115 -11 -13 -2
-45 -7 -73 -10 -90 -10 -267 -45 -410 -82 -526 -134 -1020 -392 -1450 -756
-33 -28 -289 -278 -568 -556 -279 -279 -509 -507 -510 -508 -2 -2 -62 -10
-122 -18 -21 -2 -73 -9 -115 -15 -75 -10 -103 -13 -195 -25 -27 -3 -81 -10
-120 -15 -38 -5 -92 -12 -120 -16 -27 -3 -61 -7 -75 -9 -14 -2 -45 -6 -70 -10
-25 -3 -61 -7 -80 -10 -19 -3 -54 -7 -77 -10 -24 -3 -60 -7 -82 -10 -21 -3
-56 -8 -77 -10 -47 -6 -136 -18 -146 -21 -5 -1 -16 -2 -25 -3 -20 -1 -1278
-1253 -1299 -1293 -29 -56 -7 -137 48 -172 18 -11 271 -63 488 -100 26 -4 140
-25 305 -57 55 -10 117 -21 138 -25 32 -4 56 -22 130 -95 56 -55 87 -92 82
-98 -11 -10 -50 -32 -184 -104 -192 -102 -224 -123 -243 -158 -21 -40 -23 -84
-4 -118 8 -14 353 -364 767 -778 812 -812 786 -789 863 -763 18 6 42 21 53 33
11 12 67 108 123 212 56 105 104 193 107 198 2 4 45 -34 95 -83 l91 -91 22
-122 c13 -67 26 -135 28 -152 3 -16 24 -129 46 -250 23 -121 43 -232 46 -246
35 -191 43 -214 91 -245 32 -22 91 -26 124 -9 26 13 1262 1244 1286 1281 8 11
19 56 24 100 11 90 13 105 35 269 9 66 18 140 21 165 3 25 7 56 9 70 2 14 7
48 10 75 5 47 12 97 20 155 2 14 11 84 20 155 9 72 18 141 20 155 10 64 18
137 17 152 0 10 196 214 466 485 257 258 497 502 535 542 426 463 751 1100
871 1711 11 57 15 77 20 110 3 19 8 44 10 55 2 12 7 48 11 80 4 33 8 71 11 84
24 159 24 661 -1 806 -13 74 -18 86 -50 114 -26 22 -48 31 -92 36 -32 4 -69 9
-83 12 -28 5 -546 13 -552 9z m403 -266 c53 -1 102 -6 108 -10 27 -16 30 -407
6 -650 -19 -186 -87 -530 -104 -530 -20 0 -195 51 -256 74 -293 112 -553 352
-699 644 -41 81 -100 253 -111 319 -7 42 -7 42 32 52 57 15 163 39 203 46 19
3 60 10 90 15 54 9 125 19 185 26 17 2 80 6 140 10 61 4 111 7 112 8 2 2 167
0 294 -4z m-1296 -280 c83 -356 325 -701 643 -917 152 -104 370 -200 530 -234
28 -6 52 -15 52 -21 0 -20 -92 -243 -142 -343 -117 -233 -238 -421 -412 -640
-50 -63 -545 -567 -1350 -1373 l-1271 -1272 -854 854 -854 854 1234 1234
c1076 1076 1298 1294 1432 1405 93 78 275 201 431 292 168 98 523 259 537 243
3 -4 14 -41 24 -82z m-3265 -2324 l-625 -625 -50 9 c-27 5 -61 12 -75 15 -14
3 -63 12 -110 20 -47 8 -96 17 -110 20 -14 2 -85 16 -159 30 -74 14 -136 27
-138 29 -7 6 1009 1016 1023 1017 8 1 17 2 22 3 4 1 38 6 76 10 38 4 79 10 90
11 12 2 41 6 66 9 25 3 61 8 80 11 19 3 55 7 80 10 25 2 77 9 116 14 40 6 96
14 125 17 30 4 74 10 99 13 132 20 176 72 -510 -613z m810 -2361 c-4 -5 -31
-55 -60 -110 -73 -138 -94 -175 -100 -175 -3 0 -277 272 -609 605 -518 518
-602 607 -591 620 7 8 16 15 20 15 5 0 66 31 136 69 l127 69 542 -541 c304
-304 539 -546 535 -552z m1895 858 c-3 -27 -8 -59 -10 -73 -2 -14 -7 -47 -10
-75 -3 -27 -9 -81 -15 -120 -19 -141 -21 -161 -25 -201 -2 -22 -6 -54 -9 -70
-3 -16 -8 -56 -12 -89 -3 -33 -8 -69 -10 -80 -2 -11 -7 -45 -10 -75 l-5 -55
-507 -507 c-422 -422 -508 -505 -514 -489 -4 11 -16 71 -27 133 -12 62 -23
124 -26 138 -3 14 -9 50 -15 80 -6 30 -12 66 -15 80 -18 88 -29 158 -30 179 0
19 136 161 620 647 341 342 621 622 623 623 2 1 1 -20 -3 -46z"/>
<path d="M4385 5283 c-171 -28 -321 -90 -410 -169 -16 -14 -41 -36 -55 -48
-39 -33 -104 -116 -140 -176 -122 -207 -143 -473 -54 -697 25 -64 71 -152 84
-163 3 -3 14 -16 23 -30 10 -14 41 -49 70 -79 199 -205 516 -287 790 -207 166
49 319 154 424 292 60 78 125 228 143 334 86 483 -275 931 -760 944 -52 1
-104 1 -115 -1z m195 -273 c136 -26 277 -126 350 -249 52 -87 70 -147 75 -252
8 -158 -43 -289 -159 -404 -76 -75 -144 -114 -243 -140 -56 -15 -173 -21 -222
-11 -207 43 -363 181 -421 375 -103 337 144 681 495 690 39 1 95 -3 125 -9z"/>
<path d="M1194 2089 c-38 -34 -77 -75 -102 -111 -49 -68 26 -188 116 -188 46
0 79 20 139 83 57 60 69 89 60 145 -10 57 -54 94 -120 100 -50 4 -57 2 -93
-29z"/>
<path d="M874 1760 c-11 -4 -33 -23 -48 -41 -25 -29 -28 -39 -24 -88 4 -47 10
-59 41 -88 29 -26 45 -33 77 -33 53 0 96 23 120 63 66 107 -48 235 -166 187z"/>
<path d="M1575 1742 c-55 -36 -1195 -1187 -1196 -1207 0 -11 -2 -29 -4 -40 -5
-27 25 -84 55 -107 33 -24 97 -30 134 -11 15 8 291 278 612 599 436 437 586
593 592 617 21 80 -30 154 -113 163 -39 4 -57 1 -80 -14z"/>
<path d="M595 1482 c-17 -10 -151 -139 -297 -285 -291 -290 -303 -307 -279
-380 7 -20 26 -48 42 -62 34 -28 41 -30 116 -26 40 2 589 549 605 603 14 46
-9 113 -48 142 -39 28 -102 31 -139 8z"/>
<path d="M1946 1385 c-43 -23 -563 -547 -576 -579 -46 -122 95 -232 199 -156
50 36 547 545 557 570 6 14 9 31 8 38 -1 6 -2 23 -3 37 0 14 -16 41 -33 60
-40 43 -105 56 -152 30z"/>
<path d="M1163 599 c-71 -35 -94 -119 -53 -187 55 -90 201 -73 231 28 35 116
-72 212 -178 159z"/>
<path d="M902 328 c-32 -9 -130 -95 -150 -133 -10 -20 -15 -53 -13 -92 2 -32
46 -80 87 -93 56 -19 97 -5 160 53 88 80 107 150 59 213 -40 53 -83 68 -143
52z"/>
</g>
</svg>
